<?xml version="1.0" encoding="utf-8"?>
<svg version="1.1" width="1500" height="287" viewBox="0 0 1500 287" xmlns="http://www.w3.org/2000/svg">
  <defs/>
  <g transform="matrix(1, 0, 0, 1, -0.909, -0.647)">
    <svg viewBox="0 0 396 76" data-background-color="#ffffff" preserveAspectRatio="xMidYMid meet" height="287" width="1500" xmlns="http://www.w3.org/2000/svg">
      <g id="tight-bounds" transform="matrix(1,0,0,1,0.2400000000000091,0.17133063457384878)">
        <svg viewBox="0 0 395.52 75.6573387308523" height="75.6573387308523" width="395.52">
          <g>
            <svg viewBox="0 0 525.3066164279537 100.4836686302781" height="75.6573387308523" width="395.52">
              <g transform="matrix(1,0,0,1,129.78661642795362,13.887395592173029)">
                <svg viewBox="0 0 395.52000000000004 72.70887744593205" height="72.70887744593205" width="395.52000000000004">
                  <g id="textblocktransform">
                    <svg viewBox="0 0 395.52000000000004 72.70887744593205" height="72.70887744593205" width="395.52000000000004" id="textblock">
                      <g>
                        <svg viewBox="0 0 395.52000000000004 72.70887744593205" height="72.70887744593205" width="395.52000000000004">
                          <g transform="matrix(1,0,0,1,0,0)">
                            <svg width="395.52000000000004" viewBox="2.1499999999999995 -35.35 194.19 35.7" height="72.70887744593205" data-palette-color="#010c80">
                              <path d="M2.15-17.5L2.15-17.5Q2.15-21.45 3.45-24.73 4.75-28 7.13-30.38 9.5-32.75 12.63-34.05 15.75-35.35 19.45-35.35L19.45-35.35Q24.85-35.35 28.93-32.85 33-30.35 35.1-25.75L35.1-25.75 31.85-24.55Q30.7-27 28.8-28.58 26.9-30.15 24.5-30.95 22.1-31.75 19.45-31.75L19.45-31.75Q15.7-31.75 12.7-30.05 9.7-28.35 7.98-25.15 6.25-21.95 6.25-17.5L6.25-17.5Q6.25-13.1 7.98-9.9 9.7-6.7 12.7-4.98 15.7-3.25 19.45-3.25L19.45-3.25Q22.15-3.25 24.6-4.1 27.05-4.95 29.03-6.75 31-8.55 32.2-11.25L32.2-11.25 35.45-10.05Q33.3-4.9 29.15-2.27 25 0.35 19.45 0.35L19.45 0.35Q15.75 0.35 12.63-0.95 9.5-2.25 7.13-4.65 4.75-7.05 3.45-10.33 2.15-13.6 2.15-17.5ZM42.5 0L42.5-35 46.5-35 46.5-19.55 65.25-19.55 65.25-35 69.25-35 69.25 0 65.25 0 65.25-16.05 46.5-16.05 46.5 0 42.5 0ZM102.65 0L91.2-31.5 89.55-31.5 78 0 73.95 0 86.75-35 93.95-35 106.7 0 102.65 0ZM80.2-9.2L80.2-12.7 100.59-12.7 100.59-9.2 80.2-9.2ZM106.49-31.5L106.49-35 132.74-35 132.74-31.5 121.64-31.5 121.64 0 117.64 0 117.64-31.5 106.49-31.5ZM136.99-31.5L136.99-35 163.24-35 163.24-31.5 152.14-31.5 152.14 0 148.14 0 148.14-31.5 136.99-31.5ZM181.54-17.25L191.89-35 196.34-35 183.54-13.45 183.54 0 179.54 0 179.54-13.4 166.74-35 171.19-35 181.54-17.25Z" opacity="1" transform="matrix(1,0,0,1,0,0)" class="wordmark-text-0" data-fill-palette-color="primary" id="text-0" style="fill: rgb(255, 255, 255);"/>
                            </svg>
                          </g>
                        </svg>
                      </g>
                    </svg>
                  </g>
                </svg>
              </g>
              <g>
                <svg viewBox="0 0 112.62179547602776 100.4836686302781" height="100.4836686302781" width="112.62179547602776">
                  <g>
                    <svg xmlns="http://www.w3.org/2000/svg" version="1.1" x="0" y="0" viewBox="5 14.7 90 80.3" enable-background="new 0 0 100 100" height="100.4836686302781" width="112.62179547602776" class="icon-icon-0" data-fill-palette-color="accent" id="icon-0">
                      <g fill="#0023ff" data-fill-palette-color="accent">
                        <path d="M85 19.7C87.8 19.7 90 21.9 90 24.7V74.7C90 77.5 87.8 79.7 85 79.7H60.3C59 79.7 57.7 80.2 56.8 81.2L50 87.9 43.2 81.1C42.3 80.2 41 79.6 39.7 79.6H15C12.2 79.6 10 77.4 10 74.6V24.6C10 21.8 12.2 19.6 15 19.6H85M85 14.7H15C9.5 14.7 5 19.2 5 24.7V74.7C5 80.2 9.5 84.7 15 84.7H39.7L50 95 60.3 84.7H85C90.5 84.7 95 80.2 95 74.7V24.7C95 19.1 90.5 14.7 85 14.7" data-fill-palette-color="accent" style="fill: rgb(255, 255, 255);"/>
                      </g>
                      <path d="M30 45C27.2 45 25 47.2 25 50S27.2 55 30 55 35 52.8 35 50 32.8 45 30 45" data-fill-palette-color="accent" style="fill: rgb(255, 255, 255);"/>
                      <path d="M50 45C47.2 45 45 47.2 45 50S47.2 55 50 55 55 52.8 55 50 52.8 45 50 45" data-fill-palette-color="accent" style="fill: rgb(255, 255, 255);"/>
                      <path d="M70 45C67.2 45 65 47.2 65 50S67.2 55 70 55 75 52.8 75 50 72.8 45 70 45" data-fill-palette-color="accent" style="fill: rgb(255, 255, 255);"/>
                    </svg>
                  </g>
                </svg>
              </g>
            </svg>
          </g>
          <defs/>
        </svg>
        <rect width="395.52" height="75.6573387308523" fill="none" stroke="none" visibility="hidden"/>
      </g>
    </svg>
  </g>
</svg>